<svg width="94" height="139" viewBox="0 0 94 139" fill="none" xmlns="http://www.w3.org/2000/svg">
<path d="M7.00284 88.3636V100H4.54261V88.3636H7.00284ZM18.7599 88.3636V100H16.6349L11.5724 92.6761H11.4872V100H9.02699V88.3636H11.1861L16.2088 95.6818H16.3111V88.3636H18.7599ZM27.1051 91.7102C27.0597 91.2519 26.8646 90.8958 26.5199 90.642C26.1752 90.3883 25.7074 90.2614 25.1165 90.2614C24.715 90.2614 24.3759 90.3182 24.0994 90.4318C23.8229 90.5417 23.6108 90.6951 23.4631 90.892C23.3191 91.089 23.2472 91.3125 23.2472 91.5625C23.2396 91.7708 23.2831 91.9527 23.3778 92.108C23.4763 92.2633 23.6108 92.3977 23.7812 92.5114C23.9517 92.6212 24.1487 92.7178 24.3722 92.8011C24.5956 92.8807 24.8343 92.9489 25.0881 93.0057L26.1335 93.2557C26.6411 93.3693 27.107 93.5208 27.5312 93.7102C27.9555 93.8996 28.3229 94.1326 28.6335 94.4091C28.9441 94.6856 29.1847 95.0114 29.3551 95.3864C29.5294 95.7614 29.6184 96.1913 29.6222 96.6761C29.6184 97.3883 29.4366 98.0057 29.0767 98.5284C28.7206 99.0473 28.2055 99.4508 27.5312 99.7386C26.8608 100.023 26.0521 100.165 25.1051 100.165C24.1657 100.165 23.3475 100.021 22.6506 99.733C21.9574 99.4451 21.4157 99.0189 21.0256 98.4545C20.6392 97.8864 20.4366 97.1837 20.4176 96.3466H22.7983C22.8248 96.7367 22.9366 97.0625 23.1335 97.3239C23.3343 97.5814 23.6013 97.7765 23.9347 97.9091C24.2718 98.0379 24.6525 98.1023 25.0767 98.1023C25.4934 98.1023 25.8551 98.0417 26.1619 97.9205C26.4725 97.7992 26.7131 97.6307 26.8835 97.4148C27.054 97.1989 27.1392 96.9508 27.1392 96.6705C27.1392 96.4091 27.0616 96.1894 26.9062 96.0114C26.7547 95.8333 26.5313 95.6818 26.2358 95.5568C25.9441 95.4318 25.5862 95.3182 25.1619 95.2159L23.8949 94.8977C22.9138 94.6591 22.1392 94.286 21.571 93.7784C21.0028 93.2708 20.7206 92.5871 20.7244 91.7273C20.7206 91.0227 20.9081 90.4072 21.2869 89.8807C21.6695 89.3542 22.1941 88.9432 22.8608 88.6477C23.5275 88.3523 24.285 88.2045 25.1335 88.2045C25.9972 88.2045 26.7509 88.3523 27.3949 88.6477C28.0426 88.9432 28.5464 89.3542 28.9062 89.8807C29.2661 90.4072 29.4517 91.017 29.4631 91.7102H27.1051ZM30.8338 90.392V88.3636H40.3906V90.392H36.8281V100H34.3963V90.392H30.8338ZM44.4247 88.3636V100H41.9645V88.3636H44.4247ZM46.0057 90.392V88.3636H55.5625V90.392H52V100H49.5682V90.392H46.0057ZM64.3239 88.3636H66.7841V95.9205C66.7841 96.7689 66.5814 97.5114 66.1761 98.1477C65.7746 98.7841 65.2121 99.2803 64.4886 99.6364C63.7652 99.9886 62.9223 100.165 61.9602 100.165C60.9943 100.165 60.1496 99.9886 59.4261 99.6364C58.7027 99.2803 58.1402 98.7841 57.7386 98.1477C57.3371 97.5114 57.1364 96.7689 57.1364 95.9205V88.3636H59.5966V95.7102C59.5966 96.1534 59.6932 96.5473 59.8864 96.892C60.0833 97.2367 60.3598 97.5076 60.7159 97.7045C61.072 97.9015 61.4867 98 61.9602 98C62.4375 98 62.8523 97.9015 63.2045 97.7045C63.5606 97.5076 63.8352 97.2367 64.0284 96.892C64.2254 96.5473 64.3239 96.1534 64.3239 95.7102V88.3636ZM68.3651 90.392V88.3636H77.9219V90.392H74.3594V100H71.9276V90.392H68.3651ZM89.6577 94.1818C89.6577 95.4508 89.4171 96.5303 88.9361 97.4205C88.4588 98.3106 87.8073 98.9905 86.9815 99.4602C86.1596 99.9261 85.2353 100.159 84.2088 100.159C83.1747 100.159 82.2467 99.9242 81.4247 99.4545C80.6027 98.9848 79.9531 98.3049 79.4759 97.4148C78.9986 96.5246 78.7599 95.447 78.7599 94.1818C78.7599 92.9129 78.9986 91.8333 79.4759 90.9432C79.9531 90.053 80.6027 89.375 81.4247 88.9091C82.2467 88.4394 83.1747 88.2045 84.2088 88.2045C85.2353 88.2045 86.1596 88.4394 86.9815 88.9091C87.8073 89.375 88.4588 90.053 88.9361 90.9432C89.4171 91.8333 89.6577 92.9129 89.6577 94.1818ZM87.1634 94.1818C87.1634 93.3598 87.0402 92.6667 86.794 92.1023C86.5516 91.5379 86.2088 91.1098 85.7656 90.8182C85.3224 90.5265 84.8035 90.3807 84.2088 90.3807C83.6141 90.3807 83.0952 90.5265 82.652 90.8182C82.2088 91.1098 81.8641 91.5379 81.6179 92.1023C81.3755 92.6667 81.2543 93.3598 81.2543 94.1818C81.2543 95.0038 81.3755 95.697 81.6179 96.2614C81.8641 96.8258 82.2088 97.2538 82.652 97.5455C83.0952 97.8371 83.6141 97.983 84.2088 97.983C84.8035 97.983 85.3224 97.8371 85.7656 97.5455C86.2088 97.2538 86.5516 96.8258 86.794 96.2614C87.0402 95.697 87.1634 95.0038 87.1634 94.1818ZM11.9411 119V107.364H19.6456V109.392H14.4013V112.165H19.1342V114.193H14.4013V119H11.9411ZM21.3004 119V107.364H29.1413V109.392H23.7607V112.165H28.7379V114.193H23.7607V116.972H29.1641V119H21.3004ZM35.2223 119H31.0973V107.364H35.2564C36.4268 107.364 37.4344 107.597 38.2791 108.062C39.1238 108.525 39.7734 109.189 40.228 110.057C40.6863 110.924 40.9155 111.962 40.9155 113.17C40.9155 114.383 40.6863 115.424 40.228 116.295C39.7734 117.167 39.12 117.835 38.2678 118.301C37.4193 118.767 36.4041 119 35.2223 119ZM33.5575 116.892H35.12C35.8473 116.892 36.459 116.763 36.9553 116.506C37.4553 116.244 37.8303 115.841 38.0803 115.295C38.334 114.746 38.4609 114.038 38.4609 113.17C38.4609 112.311 38.334 111.608 38.0803 111.062C37.8303 110.517 37.4571 110.116 36.9609 109.858C36.4647 109.6 35.853 109.472 35.1257 109.472H33.5575V116.892ZM42.7379 119V107.364H50.5788V109.392H45.1982V112.165H50.1754V114.193H45.1982V116.972H50.6016V119H42.7379ZM52.5348 119V107.364H57.1257C58.0045 107.364 58.7545 107.521 59.3757 107.835C60.0007 108.146 60.4761 108.587 60.8018 109.159C61.1314 109.727 61.2962 110.396 61.2962 111.165C61.2962 111.937 61.1295 112.602 60.7962 113.159C60.4628 113.712 59.9799 114.136 59.3473 114.432C58.7185 114.727 57.9571 114.875 57.0632 114.875H53.9893V112.898H56.6655C57.1352 112.898 57.5253 112.833 57.8359 112.705C58.1465 112.576 58.3776 112.383 58.5291 112.125C58.6844 111.867 58.7621 111.547 58.7621 111.165C58.7621 110.778 58.6844 110.453 58.5291 110.188C58.3776 109.922 58.1446 109.722 57.8303 109.585C57.5196 109.445 57.1276 109.375 56.6541 109.375H54.995V119H52.5348ZM58.8189 113.705L61.7109 119H58.995L56.1655 113.705H58.8189ZM65.0405 119H62.4041L66.4212 107.364H69.5916L73.603 119H70.9666L68.0518 110.023H67.9609L65.0405 119ZM64.8757 114.426H71.103V116.347H64.8757V114.426ZM75.0036 119V107.364H77.4638V116.972H82.4524V119H75.0036ZM27.369 135V125.545H30.6744C31.333 125.545 31.8762 125.659 32.304 125.887C32.7318 126.112 33.0504 126.415 33.2596 126.797C33.4689 127.175 33.5736 127.595 33.5736 128.057C33.5736 128.463 33.5012 128.799 33.3566 129.063C33.215 129.328 33.0273 129.537 32.7934 129.691C32.5625 129.845 32.3117 129.959 32.0409 130.033V130.125C32.3302 130.143 32.621 130.245 32.9134 130.43C33.2058 130.614 33.4504 130.879 33.6474 131.224C33.8444 131.568 33.9429 131.99 33.9429 132.489C33.9429 132.963 33.8352 133.389 33.6197 133.767C33.4043 134.146 33.0642 134.446 32.5995 134.668C32.1348 134.889 31.53 135 30.7852 135H27.369ZM28.5139 133.984H30.7852C31.5331 133.984 32.064 133.84 32.3779 133.55C32.6949 133.258 32.8534 132.904 32.8534 132.489C32.8534 132.169 32.7718 131.873 32.6087 131.602C32.4456 131.328 32.2132 131.11 31.9116 130.947C31.61 130.781 31.253 130.697 30.8406 130.697H28.5139V133.984ZM28.5139 129.7H30.6375C30.9822 129.7 31.293 129.633 31.57 129.497C31.8501 129.362 32.0717 129.171 32.2348 128.925C32.401 128.679 32.4841 128.389 32.4841 128.057C32.4841 127.641 32.3394 127.289 32.0501 127C31.7608 126.707 31.3022 126.561 30.6744 126.561H28.5139V129.7ZM37.763 135.166C37.3137 135.166 36.9059 135.082 36.5396 134.912C36.1734 134.74 35.8826 134.492 35.6671 134.169C35.4517 133.843 35.344 133.449 35.344 132.987C35.344 132.581 35.424 132.252 35.584 131.999C35.7441 131.744 35.958 131.544 36.2257 131.399C36.4935 131.254 36.7889 131.147 37.1121 131.076C37.4383 131.002 37.7661 130.944 38.0954 130.901C38.5263 130.845 38.8756 130.804 39.1433 130.776C39.4142 130.745 39.6111 130.694 39.7342 130.624C39.8604 130.553 39.9235 130.43 39.9235 130.254V130.217C39.9235 129.762 39.7989 129.408 39.5496 129.156C39.3034 128.903 38.9294 128.777 38.4278 128.777C37.9077 128.777 37.4999 128.891 37.2044 129.119C36.909 129.346 36.7012 129.589 36.5812 129.848L35.5471 129.479C35.7318 129.048 35.978 128.712 36.2857 128.472C36.5966 128.229 36.9351 128.06 37.3014 127.964C37.6707 127.866 38.0338 127.817 38.3908 127.817C38.6186 127.817 38.8802 127.844 39.1756 127.9C39.4742 127.952 39.7619 128.061 40.0389 128.228C40.319 128.394 40.5514 128.645 40.736 128.98C40.9207 129.316 41.013 129.765 41.013 130.328V135H39.9235V134.04H39.8681C39.7943 134.194 39.6712 134.358 39.4988 134.534C39.3265 134.709 39.0972 134.858 38.8109 134.982C38.5247 135.105 38.1754 135.166 37.763 135.166ZM37.9292 134.188C38.3601 134.188 38.7232 134.103 39.0187 133.934C39.3172 133.764 39.5419 133.546 39.6927 133.278C39.8466 133.01 39.9235 132.729 39.9235 132.433V131.436C39.8774 131.491 39.7758 131.542 39.6188 131.588C39.4649 131.632 39.2864 131.67 39.0833 131.704C38.8833 131.735 38.6878 131.762 38.497 131.787C38.3093 131.808 38.1569 131.827 38.04 131.842C37.7569 131.879 37.4922 131.939 37.246 132.022C37.0028 132.102 36.8059 132.224 36.6551 132.387C36.5073 132.547 36.4335 132.766 36.4335 133.043C36.4335 133.421 36.5735 133.707 36.8536 133.901C37.1367 134.092 37.4953 134.188 37.9292 134.188ZM43.0016 135V127.909H44.091V135H43.0016ZM43.5555 126.727C43.3432 126.727 43.1601 126.655 43.0062 126.51C42.8554 126.366 42.78 126.192 42.78 125.989C42.78 125.786 42.8554 125.612 43.0062 125.467C43.1601 125.322 43.3432 125.25 43.5555 125.25C43.7679 125.25 43.9495 125.322 44.1003 125.467C44.2542 125.612 44.3311 125.786 44.3311 125.989C44.3311 126.192 44.2542 126.366 44.1003 126.51C43.9495 126.655 43.7679 126.727 43.5555 126.727ZM48.1732 135.166C47.7238 135.166 47.316 135.082 46.9498 134.912C46.5836 134.74 46.2927 134.492 46.0773 134.169C45.8618 133.843 45.7541 133.449 45.7541 132.987C45.7541 132.581 45.8341 132.252 45.9942 131.999C46.1542 131.744 46.3681 131.544 46.6359 131.399C46.9036 131.254 47.1991 131.147 47.5222 131.076C47.8485 131.002 48.1762 130.944 48.5055 130.901C48.9364 130.845 49.2857 130.804 49.5535 130.776C49.8243 130.745 50.0213 130.694 50.1444 130.624C50.2706 130.553 50.3337 130.43 50.3337 130.254V130.217C50.3337 129.762 50.209 129.408 49.9597 129.156C49.7135 128.903 49.3396 128.777 48.8379 128.777C48.3178 128.777 47.91 128.891 47.6146 129.119C47.3191 129.346 47.1114 129.589 46.9913 129.848L45.9573 129.479C46.1419 129.048 46.3881 128.712 46.6959 128.472C47.0067 128.229 47.3453 128.06 47.7115 127.964C48.0808 127.866 48.444 127.817 48.801 127.817C49.0287 127.817 49.2903 127.844 49.5858 127.9C49.8843 127.952 50.1721 128.061 50.4491 128.228C50.7292 128.394 50.9615 128.645 51.1462 128.98C51.3308 129.316 51.4232 129.765 51.4232 130.328V135H50.3337V134.04H50.2783C50.2044 134.194 50.0813 134.358 49.909 134.534C49.7366 134.709 49.5073 134.858 49.2211 134.982C48.9349 135.105 48.5856 135.166 48.1732 135.166ZM48.3394 134.188C48.7702 134.188 49.1334 134.103 49.4288 133.934C49.7274 133.764 49.952 133.546 50.1028 133.278C50.2567 133.01 50.3337 132.729 50.3337 132.433V131.436C50.2875 131.491 50.1859 131.542 50.029 131.588C49.8751 131.632 49.6966 131.67 49.4935 131.704C49.2934 131.735 49.098 131.762 48.9072 131.787C48.7194 131.808 48.5671 131.827 48.4502 131.842C48.167 131.879 47.9023 131.939 47.6561 132.022C47.413 132.102 47.216 132.224 47.0652 132.387C46.9175 132.547 46.8436 132.766 46.8436 133.043C46.8436 133.421 46.9837 133.707 47.2637 133.901C47.5469 134.092 47.9054 134.188 48.3394 134.188ZM54.5012 130.734V135H53.4117V127.909H54.4643V129.017H54.5566C54.7228 128.657 54.9752 128.368 55.3137 128.149C55.6522 127.928 56.0893 127.817 56.6248 127.817C57.1049 127.817 57.525 127.915 57.8851 128.112C58.2452 128.306 58.5252 128.602 58.7253 128.999C58.9253 129.393 59.0253 129.891 59.0253 130.494V135H57.9359V130.568C57.9359 130.011 57.7912 129.577 57.5019 129.266C57.2126 128.952 56.8156 128.795 56.3109 128.795C55.9631 128.795 55.6522 128.871 55.3783 129.022C55.1075 129.172 54.8936 129.393 54.7366 129.682C54.5797 129.971 54.5012 130.322 54.5012 130.734ZM63.8969 135.148C63.2567 135.148 62.6951 134.995 62.2119 134.691C61.7318 134.386 61.3563 133.96 61.0854 133.412C60.8177 132.864 60.6838 132.224 60.6838 131.491C60.6838 130.753 60.8177 130.108 61.0854 129.557C61.3563 129.006 61.7318 128.578 62.2119 128.274C62.6951 127.969 63.2567 127.817 63.8969 127.817C64.537 127.817 65.0972 127.969 65.5773 128.274C66.0605 128.578 66.4359 129.006 66.7037 129.557C66.9745 130.108 67.11 130.753 67.11 131.491C67.11 132.224 66.9745 132.864 66.7037 133.412C66.4359 133.96 66.0605 134.386 65.5773 134.691C65.0972 134.995 64.537 135.148 63.8969 135.148ZM63.8969 134.169C64.3832 134.169 64.7832 134.044 65.0972 133.795C65.4111 133.546 65.6435 133.218 65.7943 132.812C65.9451 132.406 66.0205 131.965 66.0205 131.491C66.0205 131.018 65.9451 130.576 65.7943 130.167C65.6435 129.757 65.4111 129.426 65.0972 129.174C64.7832 128.922 64.3832 128.795 63.8969 128.795C63.4106 128.795 63.0105 128.922 62.6966 129.174C62.3827 129.426 62.1503 129.757 61.9995 130.167C61.8487 130.576 61.7733 131.018 61.7733 131.491C61.7733 131.965 61.8487 132.406 61.9995 132.812C62.1503 133.218 62.3827 133.546 62.6966 133.795C63.0105 134.044 63.4106 134.169 63.8969 134.169Z" fill="white"/>
<rect x="22" y="27" width="15" height="15" fill="#2B9F3F"/>
<rect x="22" y="45" width="15" height="15" fill="#2B9F3F"/>
<rect x="58" y="45" width="15" height="15" fill="#2B9F3F"/>
<rect x="58" y="9" width="15" height="15" fill="#2B9F3F"/>
<rect x="40" y="9" width="15" height="15" fill="#2B9F3F"/>
<rect x="40" y="63" width="15" height="15" fill="#2B9F3F"/>
<rect x="40" y="27" width="15" height="15" fill="#2B9F3F"/>
<rect x="40" y="45" width="15" height="15" fill="#2B9F3F"/>
<rect x="22" y="63.1398" width="15" height="15" fill="#2B9F3F"/>
<circle cx="29.5" cy="16.5" r="7.5" fill="#FF0000"/>
</svg>
